<?xml version="1.0" standalone="no"?>
<!DOCTYPE svg PUBLIC "-//W3C//DTD SVG 20010904//EN"
 "http://www.w3.org/TR/2001/REC-SVG-20010904/DTD/svg10.dtd">
<svg version="1.0" xmlns="http://www.w3.org/2000/svg"
 width="273.000000pt" height="273.000000pt" viewBox="0 0 273.000000 273.000000"
 preserveAspectRatio="xMidYMid meet">
<metadata>
Created by potrace 1.14, written by Peter Selinger 2001-2017
</metadata>
<g transform="translate(0.000000,273.000000) scale(0.100000,-0.100000)"
fill="#000000" stroke="none">
<path d="M1133 2710 c-106 -19 -222 -55 -311 -96 -29 -13 -55 -24 -57 -24 -12
0 -164 -97 -220 -139 -76 -58 -188 -169 -247 -246 -50 -65 -151 -225 -143
-225 3 0 -1 -10 -9 -22 -17 -27 -66 -152 -72 -187 -3 -13 -9 -31 -13 -40 -5
-9 -14 -41 -20 -71 -6 -30 -13 -68 -17 -85 -3 -16 -7 -97 -9 -180 -4 -161 8
-263 46 -395 7 -25 13 -47 14 -50 7 -32 20 -65 49 -132 9 -21 17 -41 18 -45 0
-5 12 -25 24 -45 13 -21 24 -40 24 -44 0 -3 28 -47 62 -97 66 -95 221 -259
288 -303 22 -15 40 -31 40 -35 0 -5 6 -9 13 -9 7 0 23 -9 35 -20 12 -11 24
-20 28 -20 4 0 28 -13 53 -28 44 -27 180 -89 211 -97 3 0 30 -8 60 -17 154
-45 208 -53 390 -52 199 1 303 18 466 80 118 44 311 150 322 176 2 5 8 8 13 8
13 0 70 50 166 148 73 74 146 172 211 282 22 38 93 196 96 214 1 6 5 16 8 22
4 6 9 21 12 35 3 13 10 42 15 64 10 41 16 74 31 160 9 52 6 331 -4 375 -3 14
-9 41 -12 60 -3 19 -14 64 -25 100 -10 36 -19 70 -20 75 -11 56 -107 245 -174
341 -112 161 -288 323 -440 404 -33 18 -64 35 -70 40 -36 26 -251 98 -340 114
-16 3 -41 8 -55 12 -14 3 -95 7 -180 9 -116 2 -180 -2 -257 -15z"/>
</g>
</svg>
